<?xml version="1.0" encoding="utf-8"?>
<!-- Generator: Adobe Illustrator 16.0.0, SVG Export Plug-In . SVG Version: 6.00 Build 0)  -->
<!DOCTYPE svg PUBLIC "-//W3C//DTD SVG 1.1//EN" "http://www.w3.org/Graphics/SVG/1.1/DTD/svg11.dtd">
<svg version="1.1" id="Layer_1" xmlns="http://www.w3.org/2000/svg" xmlns:xlink="http://www.w3.org/1999/xlink" x="0px" y="0px"
	 width="313.484px" height="445.478px" viewBox="0 0 313.484 445.478" enable-background="new 0 0 313.484 445.478"
	 xml:space="preserve">
<path fill="#FFFFFF" stroke="#000000" stroke-miterlimit="10" d="M-1296.032,394.398"/>
<path fill="#FFFFFF" d="M-1168.199,113.065"/>
<path fill="#D63030" stroke="#000000" stroke-width="5" stroke-linecap="round" d="M94.468,208.398"/>
<path fill="#D63030" stroke="#000000" stroke-width="5" stroke-linecap="round" d="M77.342,324.221
	c8.809,17.974,19.44,35.504,28.126,52.553"/>
<path fill="none" stroke="#FFFFFF" stroke-width="5" stroke-linecap="round" d="M109.343,364.977
	c-0.088-0.092-0.921,0.969-0.749,1.255c0.331,0.552,1.812-1.134,1.908-1.461c-0.223,0.12-0.442,0.256-0.644,0.41
	c-0.158,0.122-0.311,0.254-0.469,0.377c-0.112,0.087-0.33,0.22-0.394,0.356c-0.049,0.107-0.074,0.109,0.036,0.145
	c0.271,0.085,0.776-0.389,0.967-0.52"/>
<path fill="none" stroke="#FFFFFF" stroke-width="5" stroke-linecap="round" d="M110.312,367.883
	c-0.333,0.13-0.181-0.64-0.157-0.747c0.107-0.486,0.403-0.817,0.707-1.188c-0.01,0.269-0.253,0.488-0.423,0.668
	c-0.23,0.241-0.504,0.591-0.799,0.756c-0.031-0.44,0.254-0.945,0.456-1.314c0.146-0.266,0.319-0.516,0.466-0.78
	c0.083-0.148,0.212-0.326-0.006-0.395c-0.173-0.055-0.402,0.056-0.558,0.122c-0.416,0.177-0.874,0.459-1.217,0.758
	c0.653-0.389,1.186-0.923,1.802-1.355c-0.318,0.054-0.702,0.343-0.979,0.506c-0.388,0.23-0.774,0.463-1.163,0.692
	c0.322-0.069,0.621-0.257,0.897-0.427c0.329-0.202,0.668-0.41,0.955-0.67c-0.199,0.058-0.396,0.174-0.571,0.281
	c-0.201,0.123-0.671,0.396-0.755,0.639c-0.073,0.21,0.187,0.23,0.344,0.127"/>
<path fill="none" stroke="#FFFFFF" stroke-width="5" stroke-linecap="round" d="M111.327,365.758c-0.36,0.301-0.65,0.72-0.88,1.125
	c-0.08,0.141-0.476,0.749-0.309,0.94c0.177,0.203,1.535-1.15,1.722-1.376c-0.023,0.116-0.133,0.209-0.204,0.3
	c-0.165,0.212-0.346,0.425-0.469,0.663c-0.142,0.275-0.286,0.864,0.027,1.095c0.287,0.211,0.759-0.438,0.92-0.603
	c0.258-0.265,0.863-0.745,0.8-1.178c-0.337,0.519-0.63,1.141-0.655,1.771c-0.011,0.255,0.004,0.289-0.142,0.497
	c-0.122,0.175-0.188,0.383-0.266,0.579c-0.089,0.225-0.143,0.428-0.139,0.669c-0.004-0.132,0.047-0.26,0.109-0.374"/>
<path fill="none" stroke="#FFFFFF" stroke-width="5" stroke-linecap="round" d="M111.874,369.055
	c-0.028-0.02-0.059-0.031-0.092-0.035c-0.272,0.369-0.342,1.122-0.24,1.563c0.019-0.187-0.058-0.515,0.16-0.606"/>
<path fill="none" stroke="#FFFFFF" stroke-width="5" stroke-linecap="round" d="M110.812,370.117
	c-0.117-0.078-0.193-0.204-0.281-0.312"/>
<path fill="none" stroke="#FFFFFF" stroke-width="5" stroke-linecap="round" d="M109.999,369.164
	c-0.088-0.096-0.201-0.231-0.339-0.242c-0.019,0.251-0.025,1.076,0.292,1.164"/>
<path fill="none" stroke="#FFFFFF" stroke-width="5" stroke-linecap="round" d="M109.28,367.93c0.303,0.014,0.602,0.354,0.856,0.5
	c-0.334-0.066-0.726-0.485-0.993-0.684c-0.395-0.292-0.93-0.581-1.176-1.019c0.148,0.016,0.314,0.059,0.455,0.113
	c0.193,0.075,0.366,0.28,0.558,0.322c-0.095-0.119-0.188-0.224-0.308-0.317c-0.045-0.034-0.413-0.172-0.41-0.166
	c0.138,0.284,0.534,0.512,0.787,0.686c0.224,0.153,0.75,0.565,1.043,0.377"/>
<path fill="#FFFFFF" stroke="#FFFFFF" stroke-width="5" stroke-linecap="round" d="M108.187,367.492
	c-0.057,0.114,0.186,0.277,0.265,0.344c0.269,0.227,0.517,0.476,0.784,0.705c0.333,0.286,0.626,0.61,0.965,0.89
	c0.13,0.107,0.295,0.255,0.471,0.265"/>
<path fill="#FFFFFF" d="M233.077,212.634c-0.906-4.643-3.809-8.452-8.725-9.264c-4.257-0.703-8.959,1.44-10.957,5.329
	c-4.099-0.499-8.632,1.342-10.562,5.071c-0.627-0.043-1.275-0.047-1.961,0.02c-1.805,0.176-3.411,0.807-5.043,1.502
	c-0.662,0.282-2.767,0.653-0.381,0.27c-0.573,0.092-1.145,0.194-1.714,0.304c-0.923-0.619-1.909-1.157-2.93-1.559
	c-0.25-0.099-0.499-0.174-0.748-0.254c0.013-0.211,0.024-0.417,0.036-0.604c0.093-0.404,0.176-0.817,0.238-1.249
	c0.676-4.676-1.687-9.318-6.038-11.289c-0.783-0.354-1.573-0.591-2.361-0.742c-2.669-3.733-7.741-5.676-11.979-4.635
	c-2.595-1.411-5.875-1.823-9.151-0.996c-3.028,0.764-5.309,2.72-7.037,5.168c-1.494,0.571-2.8,1.702-3.855,2.956
	c-1.035,0.795-1.911,1.763-2.565,2.926c-1.085,0.05-2.196,0.224-3.375,0.533c-0.126,0.027-0.233,0.05-0.332,0.073
	c-0.61-0.331-1.876-1.052-2.169-1.178c-0.449-0.373-1.189-0.987-1.234-0.942c-0.276-0.344-0.543-0.696-0.787-1.066
	c0.527,0.979,0.489,0.917-0.1-0.155c-0.012-0.305-0.024-0.609-0.062-0.927c-0.998-8.586-1.953-17.02-0.544-25.879
	c0.96-6.036,1.712-10.585,0.221-16.691c-0.116-0.475-0.228-0.925-0.336-1.367c0.128-1.361,0.349-2.723,0.428-4.068
	c0.212-3.585-2.135-9.883-0.891-12.075c2.831-4.987-0.396-11.696-5.247-13.894c-0.519-0.235-1.036-0.409-1.552-0.554
	c0.016-1.699,0.043-3.398,0.046-5.098c0.005-2.989-1.439-5.361-3.557-6.962c-0.409-4.443-0.741-8.891-0.988-13.345
	c0.945-2.738,0.797-5.872-0.35-8.517c-0.056-2.057-0.098-4.116-0.105-6.175c-0.012-3.044-1.256-5.329-3.131-6.851
	c0.052-1.528-0.009-3.055-0.119-4.579c-0.265-3.662-0.185-7.278-0.25-10.945c-0.183-10.258-16.66-12.965-20.013-3.225
	c-1.943,5.644-2.242,10.807-1.213,16.67c0.276,1.573,0.406,3.114,0.459,4.642c-0.06,1.207-0.069,2.339,0,3.439
	c-0.084,3.049-0.327,6.1-0.286,9.303c0.077,6.077-0.982,12.059-0.707,18.116c0.174,3.815,0.959,9.093,3.604,11.996
	c0.405,0.444,0.836,0.854,1.282,1.238c0.133,0.552,0.266,1.104,0.399,1.656c0.021,0.084,0.037,0.17,0.058,0.254
	c-0.336,0.935-0.64,1.881-0.93,2.833c-2.933,1.828-4.959,5.051-4.539,9.523c0.149,1.599-0.639,3.552-0.794,5.185
	c-0.298,3.134,0.133,6.268,0.438,9.38c0.545,5.574,0.248,10.881,1.247,16.342c-0.219,0.929-0.438,1.858-0.634,2.792
	c-1.114,5.326-1.692,10.559,0.116,15.783c0.835,2.413,1.511,5.481,1.602,8.229c-0.076,0.123-0.151,0.246-0.228,0.369
	c-0.773,1.728-1.064,3.535-0.872,5.42c0.187,1.772,0.831,3.459,1.837,4.904c-0.312,3.079-0.418,6.192-0.179,9.375
	c0.379,5.057,2.069,9.734,4.03,14.324c-0.214,1.503-0.429,3.005-0.644,4.508c-0.482,1.41-1.086,2.782-1.881,4.093
	c-2.654,4.378-0.167,10.281,3.765,13.032c-0.584,0.498-1.169,0.996-1.746,1.495c-2.782,2.402-3.972,5.283-4.015,8.062
	c-0.003-0.001-0.005-0.002-0.008-0.002c-6.84-1.174-13.781,2.118-19.437,5.648c-4.504,2.812-5.171,8.93-3,13.436
	c-0.62,2.352-0.34,4.904,0.596,7.183c-0.287,0.702-0.535,1.411-0.738,2.127c-0.748,2.629,0.139,5.479,1.793,7.737
	c-2.751,2.157-4.259,5.687-4.124,9.453c0.009,0.257,0.029,0.504,0.046,0.754c-1.16,3.991-0.415,8.647,2.165,12.309
	c0.652,0.926,1.527,1.863,2.368,2.691c0.053,0.231,0.176,0.677,0.38,1.455c0.935,3.556,2.876,6.859,4.456,10.152
	c1.535,3.201,2.61,6.605,4.544,9.615c1.866,2.904,3.784,5.509,5.31,8.615c1.487,3.028,3.633,5.446,5.586,8.153
	c0.785,1.089,1.624,2.109,2.5,3.125c0.451,0.523,3.673,5.288,2.125,2.875c3.295,4.794,8.186,5.28,12.145,3.393
	c0.641,0.254,1.306,0.48,2.027,0.641c4.935,1.098,8.935-0.758,11.971-3.943c2.881,4.284,7.195,7.908,11.254,10.978
	c10.379,7.852,23.029-6.937,14.33-15.357c2.502-2.213,4.535-4.852,5.683-7.812c1.587-4.094,0.79-8.239-1.714-11.131
	c7.1-7.138,12.468-15.959,14.338-25.975c0.346-1.854,0.162-3.608-0.423-5.182c1.405-1.786,2.826-3.539,4.222-5.263
	c0.791-0.977,1.334-2.019,1.684-3.085c2.146-1.826,4.265-3.693,6.271-5.664c1.219-0.655,2.356-1.534,3.378-2.584
	c3.678-3.778,6.849-7.988,8.744-12.951c0.337-0.881,0.542-1.774,0.635-2.664c2.57-5.133,4.94-10.436,7.819-15.334
	c5.053,4.195,12.572,3.679,16.212-3.335c3.878-7.471,2.854-15.54,1.854-23.554c-0.21-1.685-0.274-3.356-0.227-5.017
	c0.807-0.852,1.547-1.77,2.195-2.77C234.152,227.021,234.503,219.938,233.077,212.634z"/>
<path fill="none" stroke="#FFFFFF" stroke-linecap="round" d="M218.135,320.565c0.981-0.184,1.194-1.146,2.327-0.833
	c-7.028-0.267-14.232,2.274-21.195,3.02c-9.876,1.056-19.331,1.89-29.033,4.124c-3.522,0.812-6.428,1.726-9.761,2.989
	c-1.593,0.604-4.205,1.526-5.838,0.533"/>
<path fill="none" stroke="#FFFFFF" stroke-linecap="round" d="M80.551,321.251c-0.127,0-0.252-0.011-0.375,0.021"/>
<path fill="none" stroke="#FFFFFF" stroke-linecap="round" d="M78.51,319.959c-0.319,0.866,0.645,1.844,1.183,2.38
	c0.188,0.188,0.31,0.433,0.359,0.683c0.072,0.369,0.317,0.408,0.528,0.654c0.204,0.239,0.382,0.636,0.508,0.926
	c0.151,0.349,0.194,0.751,0.438,1.049c0.151,0.186,0.338,0.357,0.489,0.554c0.127,0.165,0.102,0.352,0.289,0.475
	c0.115,0.075,0.26,0.065,0.377,0.125c0.282,0.146,0.465,0.622,0.454,0.927"/>
<path fill="none" stroke="#FFFFFF" stroke-linecap="round" d="M81.468,321.396c-0.163,0.022-0.227,0.234-0.297,0.375
	c-0.104,0.205-0.249,0.366-0.365,0.562c-0.227,0.382-0.254,0.745-0.255,1.173c-0.001,0.479,0.308,0.789,0.438,1.224
	c0.048,0.16,0.077,0.326,0.146,0.478c0.138,0.301,0.446,0.479,0.625,0.734c0.314,0.449,0.547,0.943,0.993,1.286
	c0.125,0.096,0.278,0.15,0.387,0.267c0.169,0.184,0.201,0.449,0.287,0.673c0.09,0.229,0.145,0.476,0.232,0.701
	c-0.01-0.041-0.025-0.08-0.046-0.118"/>
<path fill="none" stroke="#FFFFFF" stroke-linecap="round" d="M82.885,325.021c-0.107,0.11-0.26,0.068-0.37,0.21
	c-0.21,0.27-0.135,0.758-0.129,1.075c-0.053-0.439-0.068-1.272-0.645-1.363c-0.021,0.228,0.039,0.448,0.117,0.658
	c0.019-0.252,0.008-0.509,0.03-0.763c0.128,0.204,0.163,0.486,0.288,0.707c0.1,0.177,0.199,0.363,0.312,0.531
	c-0.001-0.146-0.037-0.32,0.041-0.451"/>
<line fill="none" stroke="#FFFFFF" stroke-linecap="round" x1="89.968" y1="327.898" x2="89.968" y2="327.898"/>
<path fill="none" stroke="#FFFFFF" stroke-linecap="round" d="M85.904,334.272c-0.403-0.354-0.564-0.965-0.849-1.402
	c-0.151-0.233-0.314-0.469-0.396-0.744c-0.109-0.366-0.127-0.8-0.353-1.136c-0.213-0.315-0.51-0.515-0.639-0.89
	c-0.118-0.342-0.223-0.598-0.434-0.898c-0.253-0.359-0.347-0.78-0.503-1.184c-0.216-0.556-0.517-1.064-0.826-1.564
	c0.02,0.245,0.346,0.568,0.562,0.672"/>
<path fill="none" stroke="#FFFFFF" stroke-linecap="round" d="M84.967,331.793c-0.215-0.02-0.305-0.028-0.452-0.207
	c-0.17-0.204-0.296-0.436-0.485-0.626"/>
<path fill="none" stroke="#FFFFFF" stroke-linecap="round" d="M110.053,373.565c0.179-0.549-0.808-1.019-1.244-1.231
	c-0.809-0.396-1.354-0.672-2.009-1.252c-0.756-0.671-1.315-1.298-1.912-2.082c-0.749-0.984-1.269-1.954-1.024-3.249
	c0.105-0.565,0.313-1.133,0.444-1.704c0.249-1.089,0.724-1.329,1.578-2.064"/>
<path fill="none" stroke="#FFFFFF" stroke-linecap="round" d="M111.22,372.732c-0.355-0.122-0.697-0.279-1-0.5"/>
<path fill="none" stroke="#FFFFFF" stroke-linecap="round" d="M107.886,370.398c-1.527-0.509-2.461-1.552-3.56-2.657
	c1.648,0.473,3.434,2.079,5.144,2.074"/>
<path fill="none" stroke="#FFFFFF" stroke-linecap="round" d="M105.553,367.065c-0.21,0.018-0.363,0.044-0.419,0.22
	c0.08-0.065-0.077-0.104,0-0.064c-0.012,0.06-0.005,0.115,0.019,0.17c0.107-0.045,0.121-0.155,0.217-0.215
	c0.056,0.091-0.012,0.2,0.033,0.3c0.03-0.091,0.077-0.171,0.141-0.241c0.011,0.083,0.017,0.166,0.021,0.249
	c0.113-0.229,0.135-0.225,0.158-0.235c0.062-0.882,1.29,0.235,1.661,0.452c-0.624-0.16-1.138-0.531-1.695-0.838
	c-0.248-0.137-1.613-0.512-1.694-0.638c0.33,0.513,0.086,1.245,0.703,1.694c0.931,0.677,3.251-0.633,4.189-1.021"/>
<path fill="none" stroke="#FFFFFF" stroke-linecap="round" d="M109.47,370.815c-0.095-0.073-0.112-0.148-0.237-0.162
	c0.021,0.654-0.199,1.373-0.049,1.987c-0.004-0.005-0.133-0.17-0.134-0.17c-0.148,0.229-0.183,0.6-0.221,0.844
	c-0.191-0.351-0.459-0.697-0.764-0.91c-0.105,0.512,0.265,1.147,0.386,1.575c0.022-0.344-0.14-0.647-0.231-0.973
	c-0.002,0.063-0.017,0.152-0.009,0.211c-0.207-0.354-0.487-0.665-0.833-0.878c-0.008,0.298,0.071,0.6,0.177,0.869
	c-0.012-0.3-0.062-0.424-0.179-0.688c0.07,0.312,0.248,0.563,0.427,0.544"/>
<path fill="none" stroke="#FFFFFF" stroke-linecap="round" d="M106.22,371.232c0.043,0.264,0.148,0.51,0.316,0.729
	c-0.022-0.117-0.021-0.261-0.054-0.376c0.111,0.443,0.531,0.704,0.828,1.034c-0.063-0.088-0.114-0.186-0.181-0.274
	c0.127,0.374,0.508,0.689,0.84,0.888"/>
<path fill="none" stroke="#FFFFFF" stroke-linecap="round" d="M108.72,374.065c-0.06-0.205-0.215-0.359-0.267-0.577
	c-0.412,0.625-0.757-0.071-1.221-0.247c-0.104,0.473,0.332,0.869,0.729,0.982c-0.112-0.298-0.368-0.557-0.583-0.8
	c0.132,0.265,0.467,0.637,0.592,0.725"/>
<path fill="none" stroke="#FFFFFF" stroke-linecap="round" d="M105.553,369.732c-0.139-0.14-0.278-0.278-0.417-0.417"/>
<path fill="none" stroke="#FFFFFF" stroke-linecap="round" d="M104.803,366.148c-0.622-0.406-1.275-0.744-1.939-1.075
	c0.15,0.072,0.347,0.072,0.496,0.108c0.003-0.643-0.72-1.255-1-1.826c0.41,0.277,0.819,0.598,1.324,0.673
	c-0.03-0.36-0.251-0.591-0.464-0.88"/>
<path fill="none" stroke="#FFFFFF" stroke-linecap="round" d="M106.136,368.065c-1.021-1.348-4.166-3.44-3.916-5.333"/>
<path fill="none" stroke="#FFFFFF" stroke-linecap="round" d="M103.22,362.732c-0.911-0.006-1.375-0.152-1.981-0.853
	c-0.286-0.33-1.197-1.238-0.853-1.564"/>
<path fill="none" stroke="#FFFFFF" stroke-linecap="round" d="M200.499,216.211c-0.086-0.132-0.189-0.247-0.312-0.344"/>
<path fill="none" stroke="#FFFFFF" stroke-linecap="round" d="M199.405,215.523c-0.101-0.02-0.229-0.087-0.281-0.156"/>
<path fill="none" stroke="#FFFFFF" stroke-linecap="round" d="M199.812,212.117c-0.041-0.12-0.083-0.236-0.154-0.335
	c0.297,0.146,0.128,0.592,0.054,0.826c-0.224,0.695-0.57,1.417-0.523,2.166c0.562-0.466,1.081-1.162,1.526-1.745
	c0.509-0.665,1.035-1.35,1.5-2.045c0.144-0.216,0.374-0.521,0.31-0.802c-0.505,0.023-1.19,1.031-1.454,1.402
	c-0.382,0.536-0.739,1.108-1.047,1.689c-0.085,0.161-0.484,0.847-0.303,1.067c0.325,0.393,1.824-1.524,1.967-1.686
	c0.653-0.74,1.311-1.486,1.932-2.253c0.196-0.242,0.698-0.761,0.627-1.13c-0.679,0.485-1.292,1.158-1.838,1.782
	c-0.473,0.539-0.925,1.123-1.311,1.727c-0.12,0.187-0.338,0.467-0.347,0.699c0.661-0.736,1.334-1.464,1.964-2.228
	c0.417-0.506,0.816-1.027,1.223-1.542c0.223-0.284,0.634-0.66,0.722-1.031c-0.993,0.742-1.861,2.016-2.344,3.148
	c-0.171,0.4-0.526,1.21-0.41,1.668c0.072,0.286,0.233,0.411,0.532,0.155"/>
<path fill="none" stroke="#FFFFFF" stroke-linecap="round" d="M206.53,208.805c-0.379-0.516-1.281,1.053-1.42,1.247
	c-0.557,0.783-1.507,2.057-1.424,3.092c0.458-0.703,1.138-1.235,1.678-1.87c0.295-0.347,0.995-1.032,1.07-1.486
	c-0.645,0.712-1.506,1.236-2.208,1.894c-0.577,0.54-1.233,1.102-1.735,1.711c0.672-0.776,1.49-1.437,2.255-2.116
	c0.702-0.623,1.801-1.324,2.225-2.194c-0.35,0.175-0.672,0.538-0.976,0.776c-0.592,0.464-1.177,0.914-1.709,1.448
	c-0.475,0.477-1.336,1.272-1.487,1.967c0.353-0.826,1.35-1.532,1.975-2.141c0.532-0.519,1.06-1.039,1.576-1.574
	c0.292-0.304,0.677-0.622,0.884-0.999c-0.679,0.765-1.58,1.365-2.333,2.058c-0.53,0.488-1.033,1.155-1.56,1.59
	c0.303-0.595,1.125-1.085,1.627-1.486c0.397-0.318,1.091-0.717,1.252-1.233c-0.763,0.14-1.619,0.955-2.15,1.475
	c-0.396,0.388-0.924,0.935-1.043,1.5c0.354-0.417,0.739-0.798,1.127-1.184c0.374-0.373,1.277-1.044,1.156-1.673
	c-0.253-0.048-0.54,0.27-0.717,0.414c-0.518,0.423-1.049,0.884-1.428,1.441c-0.29,0.427-0.84,1.772,0.209,1.657"/>
<path fill="none" stroke="#FFFFFF" stroke-linecap="round" d="M207.28,209.398c-0.907-0.154-1.904,1.068-2.443,1.649
	c-0.573,0.618-1.009,1.324-1.404,2.064c-0.122,0.229-0.252,0.523-0.416,0.706c0.146-0.968,1.062-1.743,1.269-2.725
	c0.198-0.938-0.333-1.493-1.193-1.018c-1.594,0.88-2.442,2.665-3.604,3.986c0.807-1.036,1.923-1.793,2.668-2.895
	c0.4-0.59,1.05-1.321,1.003-2.083c-0.755,0.779-1.572,1.504-2.256,2.352c-0.399,0.495-0.724,1.188-1.187,1.611
	c0.092-0.213,0.324-0.446,0.462-0.614c0.544-0.666,1.134-1.291,1.703-1.935c0.536-0.607,1.369-1.366,1.662-2.14
	c-0.466,0.131-0.931,0.615-1.288,0.914c-0.87,0.728-1.732,1.536-2.416,2.445c-0.216,0.288-1.592,2.687-0.246,2.464"/>
<path fill="none" stroke="#FFFFFF" stroke-linecap="round" d="M201.812,208.023c-1.055-0.104-1.785,1.27-2.096,2.069
	c-0.363,0.936-0.445,2.024-0.437,3.021c-0.031-0.909,0.757-1.984,1.12-2.78c0.257-0.563,0.791-1.374,0.725-2.026
	c-0.627,0.546-1.11,1.442-1.509,2.156c-0.37,0.662-0.684,1.403-0.81,2.155c0.042-0.313,0.269-0.594,0.446-0.841
	c0.483-0.672,0.997-1.31,1.439-2.012c0.405-0.644,0.841-1.305,1.179-1.988c0.139-0.279,0.257-0.564,0.223-0.88
	c-0.62,0.56-1.016,1.577-1.277,2.343c-0.276,0.811-0.469,1.665-0.755,2.466c0.009-0.1,0.04-0.192,0.095-0.277"/>
<path fill="none" stroke="#FFFFFF" stroke-linecap="round" d="M199.843,206.867c-0.297,1.111-0.907,2.248-0.877,3.424
	c-0.049-0.537,0.63-1.264,0.882-1.705c0.216-0.376,0.655-0.927,0.585-1.395c-0.309,1.028-0.552,2.048-0.801,3.083
	c-0.168-0.942,0.921-1.902-0.04-2.691c-0.32,0.517-0.444,1.342-0.565,1.945c-0.059,0.296,0.011,1.121-0.214,1.327
	c-0.034-0.042-0.055-0.09-0.063-0.144"/>
<path fill="none" stroke="#FFFFFF" stroke-linecap="round" d="M191.564,209.243c-0.082,0.176,0.012,0.625-0.212,0.647
	C191.319,209.692,191.477,209.432,191.564,209.243z"/>
<path fill="none" stroke="#FFFFFF" stroke-linecap="round" d="M190.812,208.742c-0.9-0.225,0.172,3.043,0.416,3.505
	c0.14-0.812,0.375-2.892-0.627-3.315c-0.016,0.921-0.036,2.029,0.213,2.926c-0.006-0.407,0.018-0.789,0.089-1.191
	c0.079-0.451,0.303-1.182,0.135-1.614c-0.089,1.03-0.052,1.983-0.294,3.009c-0.061,0.255-0.927,2.688-0.369,2.617"/>
<path fill="none" stroke="#FFFFFF" stroke-linecap="round" d="M191.468,213.867c-0.574-0.032-0.431,2.288-0.439,2.712
	c-0.535-0.817-0.568-1.891-0.867-2.806c0.444-0.027,1.006,0.543,1.302,0.82c0.321,0.3,0.618,0.735,1.004,0.954
	c0.089-0.97-0.909-1.235-1.54-1.642c1.995-0.123,4.018-0.116,6.017-0.157c1.31-0.027,2.626-0.031,3.935,0.056
	c0.468,0.031,0.939,0.102,1.409,0.098c-1.591-0.274-3.188-0.22-4.79-0.002c-1.328,0.18-2.645,0.417-3.911,0.866
	c-0.655,0.232-1.425,0.449-2.032,0.791c0.066,0.255,0.557,0.414,0.789,0.436"/>
<path fill="none" stroke="#FFFFFF" stroke-linecap="round" d="M193.249,214.805c0.004-0.11,0.061-0.224,0.122-0.309
	c-0.16-0.008-0.325,0.003-0.486-0.01c0.179-0.071,0.378-0.163,0.571-0.217c-0.446,0.043-0.839,0.28-1.294,0.256
	c0.424-0.148,0.822-0.377,1.256-0.497c-0.412,0.155-0.817,0.33-1.201,0.549c0.446-0.143,0.911-0.199,1.377-0.173
	c-0.698,0.37-1.484,0.693-2.123,1.207c0.815,0.096,1.843-0.273,2.618-0.485c0.825-0.226,1.66-0.443,2.506-0.577
	c0.694-0.11,1.447-0.139,2.145-0.093c-1.009,0.455-2.102,0.791-3.154,1.153c-1.063,0.366-2.118,0.842-3.206,1.125
	c0.817-0.498,1.67-0.939,2.531-1.355c0.596-0.288,1.595-0.91,2.342-0.881c-0.575,0.564-1.706,0.822-2.448,1.056
	c-0.582,0.183-1.277,0.498-1.892,0.535c0.761-0.621,1.871-1.013,2.77-1.371c0.889-0.354,1.776-0.583,2.7-0.797
	c-1.018,0.344-2.054,0.599-3.098,0.855c-0.672,0.164-1.329,0.427-2.005,0.566c0.485,0.007,0.977-0.215,1.433-0.35
	c0.406-0.12,1.278-0.516,1.715-0.364c-0.596,0.506-1.49,0.8-2.214,1.056c-0.578,0.204-1.172,0.385-1.78,0.468
	c0.931-0.315,1.823-0.747,2.757-1.063c1.073-0.364,2.163-0.595,3.271-0.808c-0.937,0.25-1.854,0.562-2.782,0.84
	c-0.35,0.104-1.761,0.288-1.911,0.681c0.186,0.082,0.481,0.035,0.67,0.034"/>
<path fill="none" stroke="#FFFFFF" stroke-linecap="round" d="M191.405,213.367c-0.08-0.154-0.142-0.312-0.125-0.5"/>
<path fill="none" stroke="#FFFFFF" stroke-linecap="round" d="M191.28,212.367c-0.019-0.067-0.045-0.13-0.094-0.18
	c-0.281,0.598-0.414,1.201-0.44,1.86c0.247-0.461,0.518-0.914,0.786-1.361c-0.012,0.296,0.015,0.799,0.375,0.545
	c0.399-0.28,0.939-2.109,0.089-2.108c-0.174,0.637,0.18,1.751,0.561,2.267c0.067-0.795,0.038-2.45-0.906-2.676
	c0.012,0.28,0.005,0.561,0.005,0.841"/>
<path fill="none" stroke="#FFFFFF" stroke-linecap="round" d="M191.999,210.43c-0.354-0.245-0.323-0.751-0.132-1.06
	c0.044,0.528,0.077,0.924,0.356,1.372c0.256,0.412,0.338,0.733,0.338,1.22"/>
<path fill="none" stroke="#FFFFFF" stroke-linecap="round" d="M192.749,212.961c0.078-0.188,0.035-0.54,0.029-0.772
	c0.149,0.322,0.796,0.646,1.087,0.874c1.483,1.157,3.701-0.086,5.282-0.353c-0.196,0.044-0.387,0.117-0.581,0.163
	c0.005,0.05-0.029,0.08-0.036,0.12"/>
<path fill="none" stroke="#FFFFFF" stroke-linecap="round" d="M198.812,207.148c0.184,0.051-0.242,1.077-0.274,1.312
	c-0.064,0.466-0.038,0.959-0.038,1.438c0,0.508-0.047,0.983-0.221,1.438c-0.397,1.043-1.199,2.034-2.186,2.594"/>
<path fill="none" stroke="#FFFFFF" stroke-linecap="round" d="M192.687,212.898c0.352-0.114,0.604-0.226,0.969-0.134
	c0.36,0.091,0.669,0.301,1.031,0.408c0.573,0.169,1.129,0.213,1.725,0.102c0.444-0.083,0.9-0.186,1.312-0.374
	c0.329-0.15,0.628-0.471,0.963-0.565"/>
<path fill="none" stroke="#FFFFFF" stroke-linecap="round" d="M194.655,213.867c-0.434,0.063-0.768-0.69-1.007-1.001
	c-0.242-0.315-0.535-0.561-0.767-0.88c-0.367-0.508-0.705-1.176-0.687-1.817c0.189,0.499-0.011,0.953,0.359,1.419
	c0.212,0.268,0.456,0.512,0.663,0.778c0.271,0.349,0.391,0.786,0.875,0.814"/>
<path fill="none" stroke="#FFFFFF" stroke-linecap="round" d="M192.046,208.742c0.096,0.322,0.232,0.591,0.375,0.894
	c0.168,0.355,0.205,0.69,0.254,1.076c0.115,0.912,0.446,2.408,1.621,2.405"/>
<path fill="none" stroke="#FFFFFF" stroke-linecap="round" d="M192.405,211.633c-0.044,0.306,0.24,0.545,0.452,0.703
	c0.419,0.312,0.812,0.654,1.328,0.797c0.421,0.117,0.927,0.213,1.358,0.122c0.314-0.066,0.689-0.011,0.977-0.168
	c0.132-0.072,0.246-0.169,0.385-0.233c0.188-0.087,0.392-0.14,0.577-0.236c0.208-0.108,0.362-0.281,0.566-0.391
	c0.069-0.038,0.417-0.169,0.325-0.266"/>
<path fill="none" stroke="#FFFFFF" stroke-linecap="round" d="M192.749,211.523c0.015,0.58,0.523,0.9,0.986,1.128
	c0.319,0.157,0.684,0.282,1.03,0.36c0.172,0.039,0.34,0.081,0.512,0.117c0.163,0.035,0.354,0.044,0.503,0.129"/>
<path fill="none" stroke="#FFFFFF" stroke-linecap="round" d="M91.051,260.982c0.332,0.25,3.105-0.513,3.75-0.667"/>
<path fill="none" stroke="#FFFFFF" stroke-linecap="round" d="M91.051,264.732c-1.509,0.174-2.973,0.521-4.345,1.176
	c1.012,0.539,3.891-1.063,4.859-1.439c1.729-0.671,3.577-1.675,5.458-1.824c-1.597-0.068-3.349,0.752-4.817,1.27
	c-1.771,0.624-3.536,1.249-5.328,1.811c1.763,0.211,3.945-1.062,5.528-1.659c1.738-0.656,3.454-1.41,5.29-1.75
	c-2.938,0.817-5.83,1.983-8.839,2.516c3.872-0.673,7.611-4.016,11.696-3.591c-0.062,0.472-0.445,0.61-0.926,0.896
	c-1.658,0.991-3.505,1.78-5.256,2.591c-2.009,0.929-4.805,1.379-6.579,2.679c0.647,0.016,1.447-0.328,2.022-0.52
	c1.888-0.627,3.73-1.38,5.562-2.149c3.736-1.569,7.524-3.525,11.415-4.683c-2.966,1.243-5.923,2.457-8.832,3.841
	c-2.203,1.047-4.396,2.128-6.562,3.249c-0.642,0.332-1.523,0.648-1.87,1.341c0.433,0.184,0.833,0.123,1.326,0.043
	c2.541-0.417,5.242-2.095,7.539-3.154c3.467-1.601,6.87-3.332,10.23-5.144c1.111-0.599,2.306-1.173,3.314-1.944
	c-3.539,1.139-6.666,3.65-9.711,5.697c-0.707,0.476-6.364,3.366-5.725,4.654c2.325,0.462,5.132-1.555,6.979-2.629
	c2.465-1.433,4.785-3.013,7.004-4.799c-1.959,0.547-3.917,1.949-5.678,2.945c-1.732,0.979-3.467,1.957-5.279,2.764
	c2.14-1.629,4.42-3.048,6.521-4.748c1.709-1.385,3.466-2.786,5.009-4.358c0.507-0.518,1.554-1.39,1.541-2.253
	c-1.002-0.992-4.188,1.064-4.877,1.429c-2.099,1.112-4.066,2.47-5.905,3.971c-1.108,0.904-3.591,2.474-3.619,4.137
	c0.491,0.067,0.804-0.163,1.271-0.441c1.93-1.147,3.709-2.881,5.223-4.518c0.451-0.487,3.932-4.335,1.956-4.928
	c-1.473-0.442-4.348,2.959-5.081,3.869c-0.828,1.025-2.645,3.207-2.109,4.673c1.751-0.535,3.594-2.899,4.84-4.1
	c1.288-1.239,4.536-3.575,4.68-5.582c-1.033-0.202-2.495,0.984-3.259,1.497c-1.56,1.049-3.217,2.227-4.422,3.689
	c-1.068,1.297-1.365,2.674-0.328,4.06"/>
<path fill="none" stroke="#FFFFFF" stroke-width="4" stroke-linecap="round" d="M109.301,257.315
	c-3.021,1.156-5.722,3.135-8.445,4.842c-2.088,1.309-4.63,2.393-6.503,4.008c2.146-0.494,4.293-2.176,6.098-3.347
	c2.611-1.695,5.337-3.373,7.764-5.329c-0.605-0.01-1.036,0.197-1.646,0.42c-2.042,0.748-4.015,1.666-5.951,2.65
	c-2.049,1.042-4.109,2.063-6.163,3.098c1.41-0.184,2.894-1.25,4.106-1.92c2.013-1.112,4.187-2.161,6.102-3.425
	c-2.358,0.801-4.713,2.395-6.778,3.763c-1.215,0.805-3.789,2.129-4.014,3.802c1.443,0.422,3.821-1.65,4.875-2.316
	c1.677-1.06,3.326-2.165,4.879-3.402c0.611-0.487,1.696-1.174,1.977-1.933c-1.104-0.103-2.449,0.749-3.38,1.191
	c-2.304,1.098-4.521,2.347-6.762,3.562c-2.325,1.262-4.703,2.424-7.03,3.673c1.716-0.872,3.345-2.016,4.97-3.04
	c1.752-1.105,3.657-2.715,5.675-3.316c-1.814,0.872-3.494,2.08-5.159,3.2c-0.987,0.665-2.858,1.619-3.389,2.752
	c1.465,0.43,4.002-1.244,5.254-1.822c1.66-0.766,3.451-1.442,5.038-2.351c-1.803,0.625-3.538,1.356-5.266,2.166
	c-1.399,0.655-3.04,1.156-4.295,2.072c2.299-0.519,4.325-2.387,6.477-3.348c-1.997,0.272-4.562,1.666-6.181,2.758
	c2.81-0.526,5.415-2.367,8.084-3.354c-2.89,0.579-5.496,2.251-8.348,2.956c1.216,0.066,2.702-0.9,3.767-1.348
	c1.847-0.776,3.678-1.624,5.574-2.277c-2.371,0.964-4.867,2.362-7.404,2.806c3.29-0.87,6.219-3.051,9.466-4.103
	c-0.743,0.201-1.476,0.438-2.21,0.668c2.615-1.058,5.763-2.24,7.921-4.101c-2.771,0.781-5.893,2.589-8.131,4.409
	c1.377-0.663,2.64-1.592,3.947-2.38c0.608-0.366,5.58-2.886,2.895-2.93c-2.229-0.036-4.365,2.091-5.567,3.771
	c1.228-0.225,2.429-1.345,3.427-2.028c0.944-0.646,1.933-1.261,2.828-1.975c-0.99,1.396-3.244,2.982-4.78,3.74
	c1.387-1.261,3.215-2.032,4.529-3.429c-1.153,0.466-2.629,1.153-3.396,2.171c1.02-0.24,3.273-1.326,3.658-2.331
	c-1.566-0.157-3.964,1.092-5.337,1.84c2.044-0.533,4.121-1.82,5.908-2.928c-1.271,0.775-2.747,1.835-3.691,3.001
	c1.163,0.317,3.639-1.889,4.344-2.745c-1.082,0.478-3.255,1.553-3.818,2.657"/>
<path fill="none" stroke="#FFFFFF" stroke-width="4" stroke-linecap="round" d="M106.801,254.315
	c-1.597-0.201-4.381,2.051-4.424,3.691c-0.02-1.463,0.156-2.92,0.449-4.352c0.251-1.221,1.163-2.875,1.148-4.08
	c0.036,2.959-1.813,5.521-1.931,8.384c0.03-2.683,0.047-6.468,1.334-8.844c2.539,1.718-0.086,6.389-0.003,8.615
	c0.854-2.86,0.131-6.241,1.572-8.922c0.338,0.795,0.092,2.084,0.009,2.915c-0.125,1.249-0.364,2.543-0.812,3.721
	c-0.296-1.382-0.337-2.818-0.507-4.222c-0.119-0.988-0.631-2.244-0.462-3.207c1.076,0.667,0.75,2.692,0.995,3.745
	c0.132,0.568,0.305,1.172,0.917,1.372c0.462,0.151,0.694,0.011,1.018-0.274c0.287-0.253,0.416-1.242,0.61-1.357
	c-0.528,0.314-1.119,0.704-0.999,1.398"/>
<path fill="none" stroke="#FFFFFF" stroke-width="4" stroke-linecap="round" d="M100.634,64.317
	c-0.031,1.614-0.041,2.898,0.423,4.477c0.329,1.121,0.665,2.796,1.497,3.701c0.729-1.191,0.473-3.606,0.398-4.984
	c-0.059-1.084-0.29-2.114-0.719-3.103c-0.255,3.106,1.257,6.058,1.318,9.137c-0.021-1.086,0.102-3.032-0.417-4.006
	c-0.181-0.339-0.543-0.431-0.75-0.788c-0.227-0.392-0.148-0.965-0.227-1.398c-0.098-0.547-0.764-3.498-1.295-3.631
	c-0.778-0.195-0.238,2.86-0.163,3.375c0.301,2.049,0.688,4.121,1.1,6.152c0.241,1.188,0.518,2.339,0.65,3.544
	c0.061,0.558,0.025,1.303,0.35,1.689"/>
<path fill="none" stroke="#FFFFFF" stroke-width="4" stroke-linecap="round" d="M98.884,56.317
	c-0.229-0.249-0.357-0.577-0.334-0.917"/>
<path fill="none" stroke="#FFFFFF" stroke-width="4" stroke-linecap="round" d="M98.05,54.15c-0.117-0.062-0.188-0.14-0.324-0.158
	c0.661,0.722,0.25,2.25,0.241,3.158c-0.023,2.395-0.711,5.011,0.085,7.317c1.048,3.034,1.23,6.273,1.601,9.44
	c0.385,3.299,0.443,6.598,0.899,9.901c0.193,1.399,0.243,2.795,0.477,4.187c0.162,0.971,0.197,2.61,0.938,3.322"/>
<path fill="none" stroke="#FFFFFF" stroke-width="4" stroke-linecap="round" d="M103.55,82.4c-0.513-1.009,0.651-3.021,1.108-3.924
	c0.293-0.579,0.596-1.189,1.014-1.689c0.66-0.79,0.804-0.806,1.295,0.031"/>
<path fill="none" stroke="#FFFFFF" stroke-width="4" stroke-linecap="round" d="M108.634,55.567
	c-2.133-0.588-4.339-0.507-6.525-0.752c-2.75-0.308-5.09,0.024-6.543,2.752c-0.987,1.854-0.73,3.767,1.665,3.706
	c2.208-0.057,4.475-1.458,6.154-2.777c0.669-0.525,1.581-1.159,1.889-2.002c-1.573,1.936-3.4,4.171-4.426,6.462
	c0.668-1.288,2.005-2.04,2.36-3.562c0.274-1.175-0.139-1.541-1.146-0.856c-1.14,0.775-3.604,3.696-2.859,5.209
	c0.944-1.252,2.107-3.097,2.018-4.73c0.025,1.346-0.22,2.695-0.259,4.049c0.165-0.753,1.133-3.562-0.165-3.752
	c-0.954,1.349-0.631,2.919-1.083,4.39c0.011-1.146,0.134-2.305,0.083-3.448c0.144,0.955,0.223,2.31,0.908,3.047
	c0.063-0.713,0.029-1.536-0.324-2.167c-0.542,1.11-0.181,3.09,1.42,2.932"/>
<path fill="none" stroke="#FFFFFF" stroke-width="4" stroke-linecap="round" d="M115.8,101.65c-1.396,0.151-5.124,2.095-4.982,3.912
	c1.03-0.641,1.379-1.857,1.146-2.992c-0.253-1.228-1.119-3.633-2.165-4.408c-1.381-1.022-3.068,1.462-3.741,2.403
	c-0.724,1.011-1.97,2.385-2.191,3.648c0.784-1.662,1.505-3.044,1.538-4.96c0.021-1.169-0.782-3.638-2.525-3.009
	c-1.344,0.485-1.314,3.669-1.338,4.731c-0.017,0.724-0.341,2.953,0.332,3.424c1-1.967,1.967-4.094,2.168-6.314
	c0.109-1.193-0.004-2.267-0.683-3.283c-0.263-0.395-1.033-1.471-1.648-1.319c-0.889,0.219-1.536,4.685-1.669,5.417
	c-0.241,1.342-0.817,3.575-0.335,4.9c1.025-1.562,1.423-4.14,1.506-5.961c0.077-1.694,0.081-3.405-0.982-4.794
	c-0.106,3.17-0.651,6.353-0.501,9.533c1.207-1.891,1.882-4.862,2.236-7.096c0.226-1.421,1.206-5.455-0.562-6.337
	c-0.404,1.074-0.597,2.306-0.835,3.424c-0.286,1.345-0.864,3.388-0.438,4.737c0.576-1.259,0.78-3.116,0.896-4.48
	c0.078-0.919,0.396-2.845-0.475-3.497c-1.082,1.828-1.082,4.208-1.256,6.259c-0.086,1.016-0.64,4.239,0.423,4.894"/>
<path fill="#FFFFFF" d="M167.127,166.075c-3.179-11.14-14.458-17.359-17.383-27.51c-2.939-10.205-18.743-7.717-20.139,2.117
	c-2.521,17.775-4.406,35.697-2.567,53.638c0.665,6.487,0.726,11.688,0.362,18.154c-0.137,2.432-0.273,4.869-0.286,7.294
	c-0.934,1.354-1.879,2.702-2.836,4.042c-0.833-11.728-4.327-22.774-9.981-33.043c-0.702-22.988,5.583-45.824,7.365-68.649
	c0.199-2.551-0.313-5.036-1.474-7.096c6.936-0.733,13.367-9.063,8.241-16.84c-3.613-5.481-5.664-11.737-8.564-17.544
	c1.151-8.115,1.758-16.304,1.211-24.669c-0.812-12.411-18.175-11.66-20.804-0.62C99.117,60.202,98.375,65.09,97.896,70
	c-1.521,1.379-2.615,3.364-2.956,6.015c-1.204,9.358-1.488,18.784-0.641,28.103c-0.678,3.115-1.32,6.228-1.927,9.34
	c0.443,0.556,0.899,1.263,0.99,1.891c0.159,1.109,0.322,1.744,0.004,2.846c-0.104,0.36-0.243,0.719-0.416,1.058
	c-0.009,0.052-0.026,0.1-0.036,0.151c0.34,1.072,0.348,2.261,0.025,3.339c0.011,0.009,0.021,0.017,0.032,0.025
	c0.974,0.8,1.465,2.324,1.465,3.536c0,1.321-0.531,2.602-1.465,3.536c-0.123,0.123-0.267,0.219-0.401,0.328
	c0.148,0.552,0.227,1.122,0.189,1.691c0.032,0.046,0.073,0.088,0.104,0.135c0.015,0.021,0.03,0.042,0.043,0.064
	c0.146,0.235,0.272,0.48,0.378,0.739c0.068,0.161,0.118,0.326,0.171,0.491c0.006,0.021,0.016,0.041,0.021,0.062
	c0.001,0.006,0.002,0.012,0.003,0.018c0.458,1.526,0.223,3.199-0.826,4.515c0.082,0.445,0.119,0.89,0.086,1.326
	c-0.003,0.28-0.033,0.558-0.077,0.833c0.147,0.291,0.274,0.593,0.365,0.917c0.238,0.886,0.238,1.772,0,2.658
	c-0.007,0.016-0.013,0.031-0.02,0.047c-0.145,0.517-0.369,0.986-0.656,1.42c0.368,0.686,0.585,1.459,0.585,2.282v0.062
	c0,0.526-0.107,1.025-0.264,1.504c0.961,0.913,1.576,2.185,1.576,3.589c0,1.509-0.711,2.863-1.796,3.786
	c0.477,0.883,0.611,1.762,0.553,2.694c0.039,0.126,0.074,0.252,0.096,0.379c0.021,0.125,0.042,0.25,0.062,0.375
	c0.036,0.218,0.064,0.431,0.087,0.642c0.275,0.616,0.436,1.291,0.436,2v0.094c0,0.412-0.056,0.811-0.154,1.194
	c-0.021,1.069-0.39,2.12-1.074,2.992c0.162,0.565,0.233,1.16,0.214,1.751c0.737,0.866,1.188,1.965,1.14,3.156
	c-0.021,0.51-0.066,1.026-0.21,1.517c-0.092,0.315-0.216,0.615-0.361,0.899c0.025,0.47,0.01,0.942-0.083,1.403
	c0.317,1.257,0.017,2.558-0.678,3.625c0.514,2.361,0.08,4.603,0.23,7.056c0.138,2.271,0.691,4.692,0.468,6.96
	c-0.095,0.964-0.305,4.04-0.425,3.942c2.457,2.012,1.978,4.733,0.271,6.499c0.867,0.903,1.412,2.117,1.412,3.443v0.031
	c0,0.432-0.075,0.845-0.182,1.247c0.114,0.411,0.182,0.839,0.182,1.284v0.095c0,1.158-0.428,2.221-1.108,3.076
	c0.013,0.256,0.005,0.513-0.021,0.769c0.644,1.118,0.875,2.46,0.45,3.734c-0.011,0.031-0.021,0.062-0.031,0.094
	c-0.236,0.71-0.58,1.342-1.031,1.889c0.474,1.584,0.354,3.333,0.022,5.027c-0.043,0.222-0.106,0.438-0.176,0.651
	c0.014,0.028,0.035,0.051,0.05,0.079c0.208,0.417,0.409,0.842,0.541,1.289c0.403,1.363,0.136,2.78-0.575,3.929
	c0.055,0.208,0.12,0.489,0.2,0.884c0.141,0.626,0.239,1.259,0.295,1.899c0,0.481-0.089,0.934-0.197,1.379
	c0.077,0.321,0.14,0.649,0.175,0.988c0.188,1.8,0.397,3.463,0.619,5.297c0.142,1.17,0.404,3.306,0.546,3.78
	c0.188,0.632,0.256,1.227,0.226,1.778c1.429,2.502,0.652,6.294-2.324,7.394c0.238,9.103,0.541,18.206,0.762,27.309
	c0.285,11.769,20.439,12.441,20.804,0.62c0.034-1.125,0.151-2.229,0.331-3.316c5.987-0.768,9.055-5.861,9.083-11.499
	c0.012-2.366,0.086-4.729,0.181-7.093c3.089-4.059,6.447-7.92,9.297-11.705c2.272-3.019,4.523-6.065,6.736-9.146
	c5.877-0.838,11.416-6.322,9.287-13.561c3.146-4.85,6.146-9.787,8.933-14.828C164.633,197.42,171.358,180.906,167.127,166.075z
	 M147.183,178.672c0.002-1.855,0.04-3.709,0.113-5.562C147.557,174.684,147.473,176.635,147.183,178.672z"/>
<path fill="#FFFFFF" stroke="#000000" stroke-width="5" stroke-linecap="round" d="M93.968,257.398"/>
<path fill="#FFFFFF" stroke="#000000" stroke-width="5" stroke-linecap="round" d="M93.968,257.398
	c-2.146-1.288-4.148-2.673-6.059-4.125c-0.44-0.235-0.822-0.534-1.145-0.883c-6.471-5.12-11.859-11.055-17.797-16.992
	c-10-9-23-13-37-11c-2,0-5,1-7,2s-4,2-6,4c-14,14-2,31,11,41c12,9,22,16,31,27c6.115,7.783,10.686,17.42,16.374,25.822l0.311-1.245"
	/>
<line fill="#D63030" stroke="#000000" stroke-width="5" stroke-linecap="round" x1="94.629" y1="47.398" x2="95.493" y2="255.987"/>
<g>
	<path fill="#FFFFFF" stroke="#000000" stroke-width="5" stroke-linecap="round" d="M105.999,376.882
		c9.027,22.603,23.015,43.207,44.969,54.517c2,1,5,2,7,2c25,0,50,0,75,0c31-10,45-43,56-71c2-7,5-14,6-22c1-6,1-12,2-18
		c1-41,1-81,0-122c-1-15-16-25-31-22c-4,1-7,3-11,5c-3,3-7,7-8,12c0,3,0,5-0.796,7.674"/>
	<path fill="#FFFFFF" stroke="#000000" stroke-width="5" stroke-linecap="round" d="M145.867,167.33l-0.69-120.387
		c0-13.794-13.416-34.943-27.209-34.943c-13.796,0-23.339,21.604-23.339,35.399"/>
	<path fill="#FFFFFF" stroke="#000000" stroke-width="5" stroke-linecap="round" d="M195.54,210.232l-0.064-39.168
		c0-13.794-11.492-29.682-25.285-29.682c-13.797,0-24.979,18.222-24.979,32.016v27.373"/>
	<path fill="#FFFFFF" stroke="#000000" stroke-width="5" stroke-linecap="round" d="M246.138,220.732l-0.115-36.619
		c0-13.794-11.484-24.677-25.277-24.677c-13.795,0-24.978,11.184-24.978,24.979v22.117"/>
</g>
</svg>
